<svg width="14" height="19" viewBox="0 0 14 19" fill="none" xmlns="http://www.w3.org/2000/svg">
<path d="M5.29492 0.63231C4.87935 0.63231 4.54247 0.969196 4.54247 1.38477C4.54247 1.80034 4.87935 2.13722 5.29492 2.13722V0.63231ZM8.70605 2.13722C9.12162 2.13722 9.45851 1.80034 9.45851 1.38477C9.45851 0.969196 9.12162 0.63231 8.70605 0.63231V2.13722ZM5.74688 15.297C5.74688 14.8814 5.40999 14.5445 4.99442 14.5445C4.57885 14.5445 4.24196 14.8814 4.24196 15.297H5.74688ZM9.75997 15.297C9.75997 14.8814 9.42309 14.5445 9.00752 14.5445C8.59195 14.5445 8.25506 14.8814 8.25506 15.297H9.75997ZM7.00132 3.50208L7.02628 2.75004C7.00996 2.7495 6.99362 2.74949 6.9773 2.75001L7.00132 3.50208ZM12.0117 8.64027L12.7619 8.58279C12.7609 8.56987 12.7596 8.55697 12.758 8.54411L12.0117 8.64027ZM12.6136 12.1183L11.8879 12.317C11.9082 12.3913 11.9399 12.462 11.9816 12.5266L12.6136 12.1183ZM12.8474 14.3349L13.519 14.6742C13.5324 14.6478 13.5442 14.6206 13.5543 14.5927L12.8474 14.3349ZM11.4228 15.2937V16.0463L11.4335 16.0461L11.4228 15.2937ZM2.57789 15.2937L2.56718 16.0462H2.57789V15.2937ZM1.15324 14.3349L0.446515 14.5933C0.45662 14.6209 0.468338 14.6479 0.481609 14.6742L1.15324 14.3349ZM1.38299 12.1218L2.01612 12.5284C2.05735 12.4642 2.08857 12.3941 2.10872 12.3205L1.38299 12.1218ZM1.98495 8.64375L1.23862 8.54795C1.23699 8.56068 1.23568 8.57346 1.2347 8.58627L1.98495 8.64375ZM5.29492 1.38477V2.13722H8.70605V1.38477V0.63231H5.29492V1.38477ZM4.99442 15.297H4.24196C4.24196 16.8873 5.37877 18.3681 7.00097 18.3681V17.6157V16.8632C6.4068 16.8632 5.74688 16.2678 5.74688 15.297H4.99442ZM7.00097 17.6157V18.3681C8.62317 18.3681 9.75997 16.8873 9.75997 15.297H9.00752H8.25506C8.25506 16.2678 7.59514 16.8632 7.00097 16.8632V17.6157ZM7.00132 3.50208L6.97636 4.25412C9.05822 4.32322 10.9298 6.1319 11.2654 8.73644L12.0117 8.64027L12.758 8.54411C12.349 5.3702 9.99806 2.84867 7.02628 2.75004L7.00132 3.50208ZM12.0117 8.64027L11.2614 8.69776C11.3555 9.92621 11.5655 11.1398 11.8879 12.317L12.6136 12.1183L13.3394 11.9195C13.0425 10.8357 12.8488 9.71674 12.7619 8.58279L12.0117 8.64027ZM12.6136 12.1183L11.9816 12.5266C12.2621 12.9608 12.3302 13.5569 12.1405 14.0772L12.8474 14.3349L13.5543 14.5927C13.9003 13.6441 13.7904 12.5531 13.2457 11.7099L12.6136 12.1183ZM12.8474 14.3349L12.1758 13.9957C11.9875 14.3685 11.6812 14.5375 11.412 14.5413L11.4228 15.2937L11.4335 16.0461C12.3396 16.0332 13.1148 15.4744 13.519 14.6742L12.8474 14.3349ZM11.4228 15.2937V14.5413H2.57789V15.2937V16.0462H11.4228V15.2937ZM2.57789 15.2937L2.58859 14.5413C2.31943 14.5375 2.01319 14.3685 1.82487 13.9957L1.15324 14.3349L0.481609 14.6742C0.885803 15.4744 1.66109 16.0332 2.56718 16.0461L2.57789 15.2937ZM1.15324 14.3349L1.85996 14.0766C1.67028 13.5577 1.73713 12.9628 2.01612 12.5284L1.38299 12.1218L0.749851 11.7152C0.208454 12.5582 0.100547 13.6468 0.446515 14.5933L1.15324 14.3349ZM1.38299 12.1218L2.10872 12.3205C2.43112 11.1433 2.64109 9.92969 2.73521 8.70123L1.98495 8.64375L1.2347 8.58627C1.14782 9.72022 0.954082 10.8391 0.657255 11.923L1.38299 12.1218ZM1.98495 8.64375L2.73128 8.73956C3.06609 6.13141 4.94094 4.32075 7.02535 4.25415L7.00132 3.50208L6.9773 2.75001C4.00154 2.84508 1.64659 5.36986 1.23862 8.54795L1.98495 8.64375Z" fill="#9A9A9A"/>
</svg>
