<svg width="22" height="22" viewBox="0 0 22 22" fill="none" xmlns="http://www.w3.org/2000/svg">
<path d="M7.35352 12.7493C7.35352 12.5077 7.15764 12.3118 6.91602 12.3118C6.67439 12.3118 6.47852 12.5077 6.47852 12.7493H7.35352ZM6.91602 13.3327H6.47852H6.91602ZM15.5202 12.7493C15.5202 12.5077 15.3243 12.3118 15.0827 12.3118C14.8411 12.3118 14.6452 12.5077 14.6452 12.7493H15.5202ZM10.6577 13.0594C10.5068 13.2481 10.5374 13.5234 10.726 13.6743C10.9147 13.8253 11.19 13.7947 11.341 13.606L10.6577 13.0594ZM13.6743 10.6893C13.8253 10.5006 13.7947 10.2253 13.606 10.0744C13.4173 9.92344 13.142 9.95403 12.9911 10.1427L13.6743 10.6893ZM10.6577 13.606C10.8087 13.7947 11.084 13.8253 11.2727 13.6743C11.4613 13.5234 11.4919 13.2481 11.341 13.0594L10.6577 13.606ZM9.00765 10.1427C8.8567 9.95403 8.58139 9.92344 8.39271 10.0744C8.20403 10.2253 8.17344 10.5006 8.32439 10.6893L9.00765 10.1427ZM10.5618 13.3327C10.5618 13.5743 10.7577 13.7702 10.9993 13.7702C11.241 13.7702 11.4368 13.5743 11.4368 13.3327H10.5618ZM11.4368 6.91602C11.4368 6.67439 11.241 6.47852 10.9993 6.47852C10.7577 6.47852 10.5618 6.67439 10.5618 6.91602H11.4368ZM6.91602 12.7493H6.47852V13.3327H6.91602H7.35352V12.7493H6.91602ZM6.91602 13.3327H6.47852C6.47852 14.5408 7.45789 15.5202 8.66602 15.5202V15.0827V14.6452C7.94114 14.6452 7.35352 14.0576 7.35352 13.3327H6.91602ZM8.66602 15.0827V15.5202H13.3327V15.0827V14.6452H8.66602V15.0827ZM13.3327 15.0827V15.5202C14.5408 15.5202 15.5202 14.5408 15.5202 13.3327H15.0827H14.6452C14.6452 14.0576 14.0576 14.6452 13.3327 14.6452V15.0827ZM15.0827 13.3327H15.5202V12.7493H15.0827H14.6452V13.3327H15.0827ZM10.9993 13.3327L11.341 13.606L13.6743 10.6893L13.3327 10.416L12.9911 10.1427L10.6577 13.0594L10.9993 13.3327ZM10.9993 13.3327L11.341 13.0594L9.00765 10.1427L8.66602 10.416L8.32439 10.6893L10.6577 13.606L10.9993 13.3327ZM10.9993 13.3327H11.4368V6.91602H10.9993H10.5618V13.3327H10.9993Z" fill="#585858"/>
</svg>
