<svg width="31" height="31" viewBox="0 0 31 31" fill="none" xmlns="http://www.w3.org/2000/svg">
<path d="M10.7861 11.9794C10.7861 11.7032 10.5623 11.4794 10.2861 11.4794C10.01 11.4794 9.78613 11.7032 9.78613 11.9794H10.7861ZM10.2861 19.4413L10.7861 19.4419V19.4413H10.2861ZM10.595 20.2393L10.9601 19.8978L10.595 20.2393ZM11.3423 20.5707L11.3417 21.0707H11.3423V20.5707ZM19.5156 20.5707V21.0707L19.5163 21.0707L19.5156 20.5707ZM20.263 20.2393L19.8978 19.8978H19.8978L20.263 20.2393ZM20.5718 19.4413H20.0718L20.0718 19.4419L20.5718 19.4413ZM20.5718 13.1087L20.0718 13.1082V13.1087H20.5718ZM20.263 12.3107L19.8978 12.6522V12.6522L20.263 12.3107ZM19.5156 11.9794L19.5163 11.4794H19.5156V11.9794ZM15.7736 11.4794C15.4974 11.4794 15.2736 11.7032 15.2736 11.9794C15.2736 12.2555 15.4974 12.4794 15.7736 12.4794V11.4794ZM9.78613 11.9796C9.78613 12.2557 10.01 12.4796 10.2861 12.4796C10.5623 12.4796 10.7861 12.2557 10.7861 11.9796H9.78613ZM10.2861 11.4145H10.7861L10.7861 11.414L10.2861 11.4145ZM10.595 10.6165L10.9601 10.958H10.9601L10.595 10.6165ZM11.3423 10.2852V9.78516L11.3417 9.78516L11.3423 10.2852ZM14.7173 10.2852L14.718 9.78516H14.7173V10.2852ZM15.4647 10.6165L15.0996 10.958V10.958L15.4647 10.6165ZM15.7736 11.4145L15.2736 11.414V11.4145H15.7736ZM15.2736 11.9796C15.2736 12.2557 15.4974 12.4796 15.7736 12.4796C16.0497 12.4796 16.2736 12.2557 16.2736 11.9796H15.2736ZM10.2861 11.4799C10.01 11.4799 9.78613 11.7037 9.78613 11.9799C9.78613 12.256 10.01 12.4799 10.2861 12.4799V11.4799ZM15.7736 12.4799C16.0497 12.4799 16.2736 12.256 16.2736 11.9799C16.2736 11.7037 16.0497 11.4799 15.7736 11.4799V12.4799ZM10.2861 11.9794H9.78613V19.4413H10.2861H10.7861V11.9794H10.2861ZM10.2861 19.4413L9.78613 19.4407C9.78565 19.8625 9.94195 20.2731 10.2298 20.5808L10.595 20.2393L10.9601 19.8978C10.8518 19.782 10.7859 19.6185 10.7861 19.4419L10.2861 19.4413ZM10.595 20.2393L10.2298 20.5808C10.5186 20.8897 10.9178 21.0701 11.3417 21.0707L11.3423 20.5707L11.343 20.0707C11.2059 20.0705 11.0674 20.0125 10.9601 19.8978L10.595 20.2393ZM11.3423 20.5707V21.0707H19.5156V20.5707V20.0707H11.3423V20.5707ZM19.5156 20.5707L19.5163 21.0707C19.9401 21.0701 20.3394 20.8897 20.6282 20.5808L20.263 20.2393L19.8978 19.8978C19.7905 20.0125 19.6521 20.0705 19.515 20.0707L19.5156 20.5707ZM20.263 20.2393L20.6282 20.5808C20.916 20.2731 21.0723 19.8625 21.0718 19.4407L20.5718 19.4413L20.0718 19.4419C20.072 19.6185 20.0062 19.782 19.8978 19.8978L20.263 20.2393ZM20.5718 19.4413H21.0718V13.1087H20.5718H20.0718V19.4413H20.5718ZM20.5718 13.1087L21.0718 13.1093C21.0723 12.6876 20.916 12.2769 20.6282 11.9692L20.263 12.3107L19.8978 12.6522C20.0062 12.7681 20.072 12.9316 20.0718 13.1082L20.5718 13.1087ZM20.263 12.3107L20.6282 11.9692C20.3394 11.6603 19.9401 11.4799 19.5163 11.4794L19.5156 11.9794L19.515 12.4794C19.6521 12.4795 19.7905 12.5375 19.8978 12.6522L20.263 12.3107ZM19.5156 11.9794V11.4794H15.7736V11.9794V12.4794H19.5156V11.9794ZM10.2861 11.9796H10.7861V11.4145H10.2861H9.78613V11.9796H10.2861ZM10.2861 11.4145L10.7861 11.414C10.7859 11.2374 10.8518 11.0739 10.9601 10.958L10.595 10.6165L10.2298 10.275C9.94195 10.5827 9.78565 10.9934 9.78613 11.4151L10.2861 11.4145ZM10.595 10.6165L10.9601 10.958C11.0674 10.8433 11.2059 10.7853 11.343 10.7852L11.3423 10.2852L11.3417 9.78516C10.9178 9.78571 10.5186 9.96612 10.2298 10.275L10.595 10.6165ZM11.3423 10.2852V10.7852H14.7173V10.2852V9.78516H11.3423V10.2852ZM14.7173 10.2852L14.7167 10.7852C14.8538 10.7853 14.9922 10.8433 15.0996 10.958L15.4647 10.6165L15.8299 10.275C15.5411 9.96612 15.1419 9.78571 14.718 9.78516L14.7173 10.2852ZM15.4647 10.6165L15.0996 10.958C15.2079 11.0739 15.2738 11.2374 15.2736 11.414L15.7736 11.4145L16.2736 11.4151C16.274 10.9934 16.1177 10.5827 15.8299 10.275L15.4647 10.6165ZM15.7736 11.4145H15.2736V11.9796H15.7736H16.2736V11.4145H15.7736ZM10.2861 11.9799V12.4799H15.7736V11.9799V11.4799H10.2861V11.9799Z" fill="#585858"/>
</svg>
