<svg width="26" height="26" viewBox="0 0 26 26" fill="none" xmlns="http://www.w3.org/2000/svg">
<path d="M22.1931 4.35285C21.637 3.79673 20.9768 3.35566 20.2501 3.05483C19.5235 2.754 18.7446 2.59931 17.9582 2.59961C17.1717 2.59991 16.393 2.75518 15.6666 3.05655C14.9402 3.35793 14.2803 3.7995 13.7246 4.35603L12.9992 5.09024L12.2798 4.35762L12.2752 4.35294C11.7193 3.79709 11.0594 3.35616 10.3332 3.05534C9.60692 2.75451 8.82853 2.59968 8.04244 2.59968C7.25635 2.59968 6.47796 2.75451 5.75171 3.05534C5.02546 3.35616 4.36557 3.79709 3.80972 4.35294L3.48657 4.67609C2.36399 5.79867 1.73334 7.32122 1.73334 8.90878C1.73334 10.4964 2.36399 12.0189 3.48657 13.1415L12.0153 21.6701L12.9784 22.6792L13.0014 22.6562L13.0263 22.6811L13.9287 21.729L22.5163 13.1413C23.6372 12.0179 24.2667 10.4957 24.2667 8.90864C24.2667 7.32163 23.6372 5.79942 22.5163 4.67595L22.1931 4.35285ZM21.4579 12.0832L13.0014 20.5399L4.54468 12.0832C3.70275 11.2412 3.22976 10.0993 3.22976 8.90867C3.22976 7.71799 3.70275 6.57609 4.54468 5.73415L4.86788 5.411C5.7094 4.56949 6.85062 4.09653 8.04071 4.09608C9.2308 4.09563 10.3724 4.56773 11.2145 5.40862L12.996 7.2225L14.7858 5.411C15.2027 4.99411 15.6976 4.66342 16.2423 4.4378C16.787 4.21218 17.3708 4.09606 17.9604 4.09606C18.55 4.09606 19.1337 4.21218 19.6784 4.4378C20.2231 4.66342 20.718 4.99411 21.1349 5.411L21.4581 5.7341C22.2987 6.57673 22.7708 7.71842 22.7708 8.90868C22.7708 10.099 22.2986 11.2406 21.4579 12.0832Z" fill="#C6C6C6"/>
</svg>
