<svg width="26" height="26" viewBox="0 0 26 26" fill="none" xmlns="http://www.w3.org/2000/svg">
<path d="M22.1931 4.35285C21.637 3.79673 20.9768 3.35566 20.2501 3.05483C19.5235 2.754 18.7446 2.59931 17.9582 2.59961C17.1717 2.59991 16.393 2.75518 15.6666 3.05655C14.9402 3.35793 14.2803 3.7995 13.7246 4.35603L12.9992 5.09024L12.2798 4.35762L12.2752 4.35294C11.7193 3.79709 11.0594 3.35616 10.3332 3.05534C9.60692 2.75451 8.82853 2.59968 8.04244 2.59968C7.25635 2.59968 6.47796 2.75451 5.75171 3.05534C5.02546 3.35616 4.36557 3.79709 3.80972 4.35294L3.48657 4.67609C2.36399 5.79867 1.73334 7.32122 1.73334 8.90879C1.73334 10.4964 2.36399 12.0189 3.48657 13.1415L12.0153 21.6701L12.9784 22.6792L13.0014 22.6562L13.0263 22.6811L13.9287 21.729L22.5163 13.1413C23.6372 12.0179 24.2667 10.4957 24.2667 8.90864C24.2667 7.32163 23.6372 5.79942 22.5163 4.67595L22.1931 4.35285Z" fill="#FF5B5B"/>
</svg>
