<svg width="24" height="24" viewBox="0 0 24 24" fill="none" xmlns="http://www.w3.org/2000/svg">
<path fill-rule="evenodd" clip-rule="evenodd" d="M15.2844 7.7032C16.0383 8.44451 17.0841 8.9037 18.24 8.9037C20.5375 8.9037 22.4 7.08958 22.4 4.85175C22.4 2.61392 20.5375 0.799805 18.24 0.799805C15.9425 0.799805 14.08 2.61392 14.08 4.85175C14.08 5.23369 14.1343 5.60328 14.2357 5.95361L8.71566 9.09129C7.96176 8.34993 6.91594 7.89071 5.76001 7.89071C3.4625 7.89071 1.60001 9.70483 1.60001 11.9427C1.60001 14.1805 3.4625 15.9946 5.76001 15.9946C6.91615 15.9946 7.96214 15.5352 8.71607 14.7936L14.237 17.9272C14.1347 18.2789 14.08 18.65 14.08 19.0336C14.08 21.2714 15.9425 23.0855 18.24 23.0855C20.5375 23.0855 22.4 21.2714 22.4 19.0336C22.4 16.7957 20.5375 14.9816 18.24 14.9816C17.0858 14.9816 16.0414 15.4394 15.2878 16.1788L9.76454 13.0439C9.86582 12.6937 9.92001 12.3244 9.92001 11.9427C9.92001 11.5608 9.86577 11.1912 9.76438 10.8409L15.2844 7.7032ZM18.24 2.82578C17.0913 2.82578 16.16 3.73284 16.16 4.85175C16.16 5.20327 16.2519 5.53388 16.4136 5.82203C16.4244 5.8379 16.4348 5.85416 16.4447 5.8708C16.4546 5.88731 16.464 5.90398 16.4728 5.92078C16.8399 6.49531 17.4941 6.87773 18.24 6.87773C19.3888 6.87773 20.32 5.97067 20.32 4.85175C20.32 3.73284 19.3888 2.82578 18.24 2.82578ZM7.52819 10.8752C7.53678 10.8915 7.54587 10.9076 7.55546 10.9236C7.56512 10.9398 7.57516 10.9555 7.58558 10.9709C7.74778 11.2594 7.84001 11.5905 7.84001 11.9427C7.84001 12.2948 7.74776 12.626 7.58552 12.9145C7.57501 12.9301 7.56487 12.946 7.55513 12.9623C7.54568 12.9781 7.53672 12.994 7.52825 13.0101C7.16134 13.5855 6.50661 13.9686 5.76001 13.9686C4.61125 13.9686 3.68001 13.0616 3.68001 11.9427C3.68001 10.8237 4.61125 9.91669 5.76001 9.91669C6.50657 9.91669 7.16127 10.2998 7.52819 10.8752ZM16.16 19.0336C16.16 18.7044 16.2406 18.3935 16.3837 18.1187C16.4095 18.0857 16.4335 18.0507 16.4555 18.014C16.4765 17.9787 16.4952 17.9428 16.5115 17.9063C16.8848 17.3643 17.5196 17.0076 18.24 17.0076C19.3888 17.0076 20.32 17.9147 20.32 19.0336C20.32 20.1525 19.3888 21.0595 18.24 21.0595C17.0913 21.0595 16.16 20.1525 16.16 19.0336Z" fill="#C6C6C6"/>
</svg>
