<svg width="18" height="18" viewBox="0 0 18 18" fill="none" xmlns="http://www.w3.org/2000/svg">
<path d="M15.3645 3.01358C14.9795 2.62858 14.5224 2.32322 14.0193 2.11496C13.5163 1.90669 12.9771 1.7996 12.4326 1.7998C11.8881 1.80001 11.349 1.90751 10.8461 2.11615C10.3432 2.32479 9.88634 2.6305 9.50162 3.01579L8.99944 3.52409L8.50144 3.01689L8.4982 3.01365C8.11338 2.62883 7.65654 2.32357 7.15375 2.11531C6.65096 1.90705 6.11207 1.79985 5.56785 1.79985C5.02364 1.79985 4.48475 1.90705 3.98196 2.11531C3.47917 2.32357 3.02233 2.62883 2.63751 3.01365L2.41379 3.23737C1.63662 4.01454 1.20001 5.06861 1.20001 6.1677C1.20001 7.26678 1.63662 8.32085 2.41379 9.09802L8.31828 15.0025L8.98507 15.7011L9.00096 15.6851L9.01822 15.7024L9.64295 15.0432L15.5882 9.09793C16.3642 8.32014 16.8 7.2663 16.8 6.1676C16.8 5.0689 16.3642 4.01506 15.5882 3.23727L15.3645 3.01358ZM14.8555 8.36536L9.00096 14.22L3.14633 8.36536C2.56345 7.78248 2.236 6.99193 2.236 6.16761C2.236 5.3433 2.56345 4.55275 3.14633 3.96987L3.37008 3.74615C3.95267 3.16357 4.74275 2.83613 5.56665 2.83582C6.39056 2.83551 7.18088 3.16235 7.76391 3.7445L8.99721 5.00027L10.2364 3.74615C10.525 3.45754 10.8676 3.2286 11.2447 3.0724C11.6218 2.9162 12.026 2.83581 12.4341 2.83581C12.8423 2.83581 13.2465 2.9162 13.6235 3.0724C14.0006 3.2286 14.3433 3.45754 14.6319 3.74615L14.8556 3.96984C15.4376 4.5532 15.7644 5.34359 15.7644 6.16763C15.7644 6.99166 15.4375 7.78203 14.8555 8.36536Z" fill="#1A1A1A"/>
</svg>
