<svg width="19" height="19" viewBox="0 0 19 19" fill="none" xmlns="http://www.w3.org/2000/svg">
<path d="M15.5282 3.28214C15.1432 2.89714 14.6861 2.59178 14.1831 2.38351C13.68 2.17525 13.1408 2.06816 12.5964 2.06836C12.0519 2.06856 11.5128 2.17606 11.0099 2.3847C10.507 2.59335 10.0501 2.89905 9.66538 3.28434L9.1632 3.79264L8.66519 3.28544L8.66196 3.2822C8.27714 2.89738 7.82029 2.59213 7.3175 2.38386C6.81471 2.1756 6.27583 2.06841 5.73161 2.06841C5.18739 2.06841 4.64851 2.1756 4.14572 2.38386C3.64293 2.59213 3.18608 2.89738 2.80127 3.2822L2.57755 3.50592C1.80038 4.28309 1.36377 5.33716 1.36377 6.43625C1.36377 7.53534 1.80038 8.58941 2.57755 9.36658L8.48204 15.271L9.14882 15.9696L9.16472 15.9537L9.18198 15.9709L9.8067 15.3118L15.752 9.36648C16.528 8.58869 16.9638 7.53485 16.9638 6.43615C16.9638 5.33745 16.528 4.28361 15.752 3.50582L15.5282 3.28214Z" fill="#FF5B5B"/>
</svg>
