<svg width="1221" height="22" viewBox="0 0 1221 22" fill="none" xmlns="http://www.w3.org/2000/svg">
<path d="M0.273438 16L3.75977 6.10156H5.94727L9.44727 16H7.54688L6.71973 13.5527H2.99414L2.17383 16H0.273438ZM6.24121 12.1172L4.89453 8.125H4.8125L3.47266 12.1172H6.24121ZM10.541 8.57617H12.2363V9.80664H12.3184C12.446 9.38737 12.6761 9.05924 13.0088 8.82227C13.3415 8.58529 13.722 8.4668 14.1504 8.4668C14.4056 8.4668 14.6152 8.48047 14.7793 8.50781V10.1211C14.7018 10.0938 14.5833 10.0687 14.4238 10.0459C14.2643 10.0231 14.1139 10.0117 13.9727 10.0117C13.6536 10.0117 13.3665 10.0801 13.1113 10.2168C12.8561 10.3535 12.6556 10.5449 12.5098 10.791C12.3639 11.0371 12.291 11.3151 12.291 11.625V16H10.541V8.57617ZM19.9336 9.91602H18.4707V13.7715C18.4707 14.0996 18.5391 14.3252 18.6758 14.4482C18.8171 14.5713 19.013 14.6328 19.2637 14.6328C19.4824 14.6328 19.7376 14.6237 20.0293 14.6055V16.0273C19.8014 16.0729 19.4733 16.0957 19.0449 16.0957C18.5938 16.0957 18.1927 16.0228 17.8418 15.877C17.4954 15.7266 17.222 15.4987 17.0215 15.1934C16.8255 14.888 16.7298 14.5098 16.7344 14.0586V9.91602H15.668V8.57617H16.7344V6.79883H18.4707V8.57617H19.9336V9.91602ZM21.2734 8.57617H23.0234V16H21.2734V8.57617ZM22.1621 7.52344C21.9844 7.52344 21.8158 7.48242 21.6562 7.40039C21.5013 7.3138 21.3783 7.19759 21.2871 7.05176C21.196 6.90137 21.1504 6.73958 21.1504 6.56641C21.1504 6.39779 21.196 6.24056 21.2871 6.09473C21.3783 5.94889 21.5013 5.83496 21.6562 5.75293C21.8158 5.66634 21.9844 5.62305 22.1621 5.62305C22.3444 5.62305 22.513 5.66634 22.668 5.75293C22.8229 5.83496 22.946 5.94889 23.0371 6.09473C23.1283 6.24056 23.1738 6.39779 23.1738 6.56641C23.1738 6.73958 23.1283 6.90137 23.0371 7.05176C22.946 7.19759 22.8229 7.3138 22.668 7.40039C22.513 7.48242 22.3444 7.52344 22.1621 7.52344ZM27.9316 16.1504C27.207 16.1504 26.5758 15.9886 26.0381 15.665C25.5049 15.3415 25.0947 14.8903 24.8076 14.3115C24.5205 13.7327 24.377 13.0697 24.377 12.3223C24.377 11.5703 24.5228 10.9049 24.8145 10.3262C25.1061 9.74284 25.5186 9.28939 26.0518 8.96582C26.5895 8.64225 27.2161 8.48047 27.9316 8.48047C28.5286 8.48047 29.0596 8.58984 29.5244 8.80859C29.9938 9.02734 30.3652 9.33724 30.6387 9.73828C30.9167 10.1393 31.0762 10.6042 31.1172 11.1328H29.4492C29.3763 10.7591 29.21 10.4561 28.9502 10.2236C28.6904 9.99121 28.3555 9.875 27.9453 9.875C27.5853 9.875 27.2686 9.97298 26.9951 10.1689C26.7262 10.3604 26.5166 10.6383 26.3662 11.0029C26.2158 11.363 26.1406 11.7891 26.1406 12.2812C26.1406 12.7871 26.2135 13.2246 26.3594 13.5938C26.5098 13.9583 26.7194 14.2386 26.9883 14.4346C27.2617 14.6305 27.5807 14.7285 27.9453 14.7285C28.3372 14.7285 28.6676 14.6191 28.9365 14.4004C29.2054 14.1816 29.3763 13.8717 29.4492 13.4707H31.1172C31.0716 13.9948 30.9121 14.4596 30.6387 14.8652C30.3698 15.2708 30.0029 15.5876 29.5381 15.8154C29.0732 16.0387 28.5378 16.1504 27.9316 16.1504ZM34.1797 16H32.4297V6.10156H34.1797V16ZM39.1426 16.1504C38.4043 16.1504 37.7617 15.9954 37.2148 15.6855C36.6725 15.3711 36.2555 14.9268 35.9639 14.3525C35.6768 13.7783 35.5332 13.1061 35.5332 12.3359C35.5332 11.5749 35.679 10.9049 35.9707 10.3262C36.2624 9.74284 36.6725 9.28939 37.2012 8.96582C37.7344 8.64225 38.3496 8.48047 39.0469 8.48047C39.6758 8.48047 40.2454 8.61491 40.7559 8.88379C41.2708 9.15267 41.6787 9.56966 41.9795 10.1348C42.2848 10.6953 42.4375 11.3926 42.4375 12.2266V12.7734H37.2559C37.2604 13.1882 37.3424 13.5482 37.502 13.8535C37.6615 14.1543 37.8825 14.3844 38.165 14.5439C38.4476 14.7035 38.778 14.7832 39.1562 14.7832C39.5254 14.7832 39.8398 14.7126 40.0996 14.5713C40.3594 14.43 40.5462 14.2454 40.6602 14.0176H42.3691C42.2643 14.446 42.0661 14.8219 41.7744 15.1455C41.4827 15.4645 41.1113 15.7129 40.6602 15.8906C40.2135 16.0638 39.7077 16.1504 39.1426 16.1504ZM40.7695 11.584C40.765 11.2467 40.6921 10.946 40.5508 10.6816C40.4095 10.4173 40.2113 10.21 39.9561 10.0596C39.7008 9.90918 39.4069 9.83398 39.0742 9.83398C38.7324 9.83398 38.4271 9.91374 38.1582 10.0732C37.8939 10.2282 37.6842 10.4401 37.5293 10.709C37.3743 10.9733 37.2855 11.265 37.2627 11.584H40.7695ZM50.5449 7.1543C50.5449 7.61003 50.6338 8.05208 50.8115 8.48047C50.9893 8.90885 51.2581 9.29395 51.6182 9.63574C51.9827 9.97754 52.4271 10.2487 52.9512 10.4492L52.1445 11.6113C51.6068 11.4062 51.1442 11.1169 50.7568 10.7432C50.3695 10.3695 50.0618 9.93424 49.834 9.4375C49.597 10.0117 49.2734 10.5199 48.8633 10.9619C48.4577 11.404 47.9701 11.7435 47.4004 11.9805L46.5801 10.8184C47.1224 10.5768 47.5804 10.2578 47.9541 9.86133C48.3278 9.46484 48.6081 9.03418 48.7949 8.56934C48.9818 8.09993 49.0775 7.62826 49.082 7.1543V5.62305H50.5449V7.1543ZM57.2578 12.4453H55.8086V9.23242H54.5781V12.0625H53.1562V5.10352H54.5781V7.98828H55.8086V4.87109H57.2578V12.4453ZM53.0879 12.6504C53.9447 12.6504 54.6898 12.7415 55.3232 12.9238C55.9613 13.1016 56.4535 13.3613 56.7998 13.7031C57.1462 14.0449 57.3216 14.4505 57.3262 14.9199C57.3216 15.3893 57.1462 15.7949 56.7998 16.1367C56.4535 16.4831 55.9613 16.7474 55.3232 16.9297C54.6898 17.112 53.9447 17.2031 53.0879 17.2031C52.222 17.2031 51.4701 17.112 50.832 16.9297C50.194 16.7474 49.7041 16.4831 49.3623 16.1367C49.0205 15.7949 48.8496 15.3893 48.8496 14.9199C48.8496 14.4505 49.0205 14.0449 49.3623 13.7031C49.7041 13.3613 50.194 13.1016 50.832 12.9238C51.4701 12.7415 52.222 12.6504 53.0879 12.6504ZM53.0879 13.7988C52.2266 13.7988 51.5566 13.8968 51.0781 14.0928C50.6042 14.2842 50.3672 14.5599 50.3672 14.9199C50.3672 15.2845 50.6042 15.5625 51.0781 15.7539C51.5521 15.9453 52.222 16.041 53.0879 16.041C53.9447 16.041 54.61 15.9453 55.084 15.7539C55.5579 15.5625 55.7949 15.2845 55.7949 14.9199C55.7949 14.5599 55.5557 14.2842 55.0771 14.0928C54.6032 13.8968 53.9401 13.7988 53.0879 13.7988ZM63.3145 6.63477C63.3099 7.20443 63.417 7.74219 63.6357 8.24805C63.8545 8.75391 64.1826 9.20052 64.6201 9.58789C65.0622 9.9707 65.5977 10.2624 66.2266 10.4629L65.4062 11.6523C64.7409 11.4199 64.1712 11.0872 63.6973 10.6543C63.2279 10.2214 62.8587 9.70638 62.5898 9.10938C62.3118 9.79753 61.9131 10.3945 61.3936 10.9004C60.874 11.4017 60.2474 11.7799 59.5137 12.0352L58.707 10.8047C59.3724 10.5859 59.9352 10.2692 60.3955 9.85449C60.8558 9.43978 61.2021 8.96126 61.4346 8.41895C61.667 7.87663 61.7832 7.30469 61.7832 6.70312V5.52734H63.3145V6.63477ZM69.1387 12.1309H67.6211V8.49414H65.1602V7.25H67.6211V4.85742H69.1387V12.1309ZM64.9551 12.459C65.8255 12.459 66.5775 12.5524 67.2109 12.7393C67.849 12.9261 68.3366 13.1995 68.6738 13.5596C69.0111 13.915 69.1797 14.3411 69.1797 14.8379C69.1797 15.3346 69.0111 15.7607 68.6738 16.1162C68.3366 16.4717 67.8512 16.7406 67.2178 16.9229C66.5843 17.1097 65.8301 17.2031 64.9551 17.2031C64.0846 17.2031 63.3327 17.1097 62.6992 16.9229C62.0703 16.7406 61.5872 16.4717 61.25 16.1162C60.9173 15.7607 60.7533 15.3346 60.7578 14.8379C60.7533 14.3411 60.9173 13.915 61.25 13.5596C61.5872 13.1995 62.0726 12.9261 62.7061 12.7393C63.3395 12.5524 64.0892 12.459 64.9551 12.459ZM64.9551 13.6348C64.0892 13.6348 63.4238 13.7396 62.959 13.9492C62.4941 14.1543 62.2617 14.4505 62.2617 14.8379C62.2617 15.2161 62.4941 15.5078 62.959 15.7129C63.4284 15.9134 64.0938 16.0137 64.9551 16.0137C65.8164 16.0137 66.4818 15.9111 66.9512 15.7061C67.4251 15.501 67.6621 15.2116 67.6621 14.8379C67.6621 14.4505 67.4274 14.1543 66.958 13.9492C66.4886 13.7396 65.821 13.6348 64.9551 13.6348ZM80.5684 9.7793H82.4688V11.0371H80.5684V17.2168H79.0645V4.85742H80.5684V9.7793ZM78.1074 7.97461H70.8203V6.75781H73.7461V5.03516H75.2637V6.75781H78.1074V7.97461ZM74.5117 8.78125C75.0996 8.78125 75.6283 8.90658 76.0977 9.15723C76.5716 9.40332 76.943 9.7474 77.2119 10.1895C77.4808 10.6315 77.6152 11.1328 77.6152 11.6934C77.6152 12.2539 77.4808 12.7552 77.2119 13.1973C76.943 13.6348 76.5716 13.9766 76.0977 14.2227C75.6283 14.4688 75.0996 14.5918 74.5117 14.5918C73.9147 14.5918 73.3792 14.4688 72.9053 14.2227C72.4313 13.9766 72.0599 13.6348 71.791 13.1973C71.5221 12.7552 71.39 12.2539 71.3945 11.6934C71.39 11.1328 71.5221 10.6315 71.791 10.1895C72.0599 9.7474 72.4313 9.40332 72.9053 9.15723C73.3792 8.90658 73.9147 8.78125 74.5117 8.78125ZM74.5117 10.0254C74.1882 10.0254 73.8988 10.0938 73.6436 10.2305C73.3929 10.3672 73.1969 10.5632 73.0557 10.8184C72.9144 11.069 72.8438 11.3607 72.8438 11.6934C72.8438 12.026 72.9144 12.3177 73.0557 12.5684C73.1969 12.8145 73.3929 13.0059 73.6436 13.1426C73.8988 13.2747 74.1882 13.3385 74.5117 13.334C74.8262 13.3385 75.1064 13.2747 75.3525 13.1426C75.6032 13.0059 75.7992 12.8145 75.9404 12.5684C76.0863 12.3177 76.1615 12.026 76.166 11.6934C76.1615 11.3607 76.0863 11.069 75.9404 10.8184C75.7992 10.5677 75.6032 10.374 75.3525 10.2373C75.1064 10.096 74.8262 10.0254 74.5117 10.0254ZM93.3105 17.2168H91.7793V4.85742H93.3105V17.2168ZM89.6191 6.16992C89.6191 8.13411 89.1748 9.85905 88.2861 11.3447C87.3975 12.8258 85.9232 14.054 83.8633 15.0293L83.0703 13.8125C84.6608 13.056 85.8571 12.1514 86.6592 11.0986C87.4658 10.0413 87.9375 8.79948 88.0742 7.37305H83.6992V6.16992H89.6191Z" fill="white"/>
<path d="M1219.96 6L1210.12 15.838" stroke="white" stroke-width="1.11111" stroke-linecap="round"/>
<path d="M1219.78 16.0006L1210.22 6.00059" stroke="white" stroke-width="1.11111" stroke-linecap="round"/>
</svg>
